<svg width="202" height="59" viewBox="0 0 202 59" fill="none" xmlns="http://www.w3.org/2000/svg">
<path d="M21.768 7.884C10.032 11.028 3.06698 23.092 6.21198 34.828C9.35598 46.564 21.42 53.529 33.156 50.384C43.686 47.563 50.374 37.563 49.368 27.06L49.215 27.101C49.28 33.633 44.943 39.634 38.342 41.403C30.517 43.499 22.475 38.856 20.379 31.032C18.282 23.208 22.925 15.165 30.749 13.069C37.351 11.3 44.107 14.329 47.317 20.018L47.47 19.977C43.09 10.378 32.298 5.062 21.768 7.884Z" fill="#459CF2"/>
<path d="M6.21198 34.828C3.06698 23.092 10.032 11.028 21.768 7.884C32.298 5.062 43.09 10.378 47.47 19.977L33.15 23.814C29.94 18.124 23.184 15.096 16.583 16.865C8.75798 18.962 4.11498 27.004 6.21198 34.828Z" fill="#FCE04B"/>
<path d="M6.21206 34.828C9.35506 46.564 21.4201 53.529 33.1551 50.384C43.6851 47.563 50.3731 37.563 49.3671 27.06L35.0471 30.897C35.1121 37.429 30.7751 43.43 24.1731 45.199C16.3491 47.295 8.30806 42.652 6.21206 34.828ZM65.7501 39.134H61.8501V19.634H65.7501V39.134ZM86.0301 39.134L73.9401 25.679V39.134H70.0401V19.634H73.5501L85.6401 33.089V19.634H89.5401V39.134H86.0301ZM109.834 39.134L97.7441 25.679V39.134H93.8441V19.634H97.3541L109.444 33.089V19.634H113.344V39.134H109.834ZM126.815 19.244C132.665 19.244 136.955 23.534 136.955 29.384C136.955 35.234 132.665 39.524 126.815 39.524C120.965 39.524 116.675 35.234 116.675 29.384C116.675 23.534 120.965 19.244 126.815 19.244ZM126.815 35.819C130.325 35.819 132.86 33.089 132.86 29.384C132.86 25.679 130.325 22.949 126.815 22.949C123.305 22.949 120.77 25.679 120.77 29.384C120.77 33.089 123.305 35.819 126.815 35.819ZM136.958 19.634H141.17L147.722 35.624H148.112L154.664 19.634H158.798L150.803 39.134H144.953L136.958 19.634ZM161.393 39.134H157.259L165.254 19.634H171.104L179.099 39.134H174.887L173.288 35.234H162.992L161.393 39.134ZM164.435 31.724H171.845L168.335 23.144H167.945L164.435 31.724ZM181.638 39.134V19.634H195.678C199.188 19.634 201.528 21.974 201.528 25.484C201.528 28.604 199.5 30.788 196.419 31.1C196.692 31.412 196.965 31.763 197.121 32.036L201.528 39.134H197.121L192.168 31.139H185.538V39.134H181.638ZM185.538 27.629H195.678C196.848 27.629 197.628 26.849 197.628 25.679V25.094C197.628 23.924 196.848 23.144 195.678 23.144H185.538V27.629Z" fill="#023363"/>
</svg>
